# Blender v3.5.1 OBJ File: ''
# www.blender.org
o file1_polyreduce2
v -0.430365 -0.253469 -0.084398
v -0.402442 -0.266212 -0.127260
v -0.394387 -0.265853 -0.061186
v -0.371486 -0.245782 -0.104432
v -0.093371 -0.260591 -0.429677
v -0.089785 -0.280740 -0.399903
v -0.051457 -0.270247 -0.425314
v -0.065348 -0.251564 -0.401904
v -0.470431 -0.045061 0.076333
v -0.498704 -0.071663 0.063368
v -0.468895 -0.067748 0.045074
v -0.497363 -0.042047 0.051140
v -0.032076 -0.149317 0.476882
v -0.040878 -0.138785 0.403063
v -0.049506 -0.111586 0.435968
v -0.009154 -0.130690 0.435969
v -0.435411 0.210272 -0.018639
v -0.426169 0.235713 -0.016045
v -0.400518 0.217253 0.001435
v -0.405904 0.197264 -0.013004
v -0.183012 0.033422 -0.440152
v -0.188584 0.017294 -0.439387
v -0.171104 0.024596 -0.424352
v -0.160821 0.022466 -0.387256
v -0.149452 0.330394 -0.314473
v -0.134525 0.298662 -0.284071
v -0.145878 0.325677 -0.309013
v -0.145958 0.328250 -0.312490
v -0.463096 0.057648 0.072491
v -0.462890 0.031172 0.078793
v -0.436686 0.036018 0.051209
v -0.429954 0.039382 0.078130
v -0.383472 0.131816 0.270424
v -0.389721 0.135099 0.271736
v -0.378420 0.132387 0.265130
v -0.386318 0.137023 0.272632
v -0.064875 0.133267 0.444141
v -0.066358 0.135665 0.458712
v -0.064668 0.137065 0.457039
v -0.068229 0.140549 0.468513
v -0.099299 0.326669 0.337454
v -0.092811 0.339331 0.335688
v -0.111496 0.341224 0.327149
v -0.114455 0.327359 0.336409
v -0.036461 0.278991 0.330622
v -0.026830 0.283014 0.351616
v -0.033171 0.308959 0.352393
v -0.037897 0.295768 0.365973
v 0.107619 -0.357269 -0.304147
v 0.108662 -0.370492 -0.315488
v 0.118903 -0.364387 -0.315724
v 0.117052 -0.365947 -0.302015
v 0.250690 -0.410187 -0.041478
v 0.275222 -0.395579 -0.075316
v 0.246794 -0.414621 -0.087561
v 0.256125 -0.429249 -0.055341
v 0.359083 -0.287837 -0.210081
v 0.331963 -0.277337 -0.222198
v 0.335572 -0.300232 -0.187684
v 0.326104 -0.307368 -0.206848
v 0.052669 -0.480995 0.021762
v 0.047053 -0.458697 0.032692
v 0.036005 -0.466368 0.012298
v 0.040377 -0.441048 0.020549
v 0.037363 -0.454234 0.184380
v 0.032763 -0.454705 0.173937
v 0.033627 -0.465128 0.179573
v 0.028132 -0.460212 0.181369
v 0.250700 -0.372832 0.073085
v 0.247363 -0.377745 0.088032
v 0.270541 -0.392127 0.088773
v 0.254440 -0.357712 0.084957
v 0.114914 0.455983 -0.042040
v 0.096102 0.468353 -0.038205
v 0.116382 0.481183 -0.023492
v 0.110902 0.490119 -0.051914
v 0.322510 0.287754 -0.232835
v 0.323424 0.279494 -0.222182
v 0.331888 0.278601 -0.237167
v 0.338509 0.283310 -0.225161
v 0.028521 0.061105 0.460694
v 0.027283 0.047313 0.449598
v 0.012993 0.055170 0.447672
v 0.019645 0.058196 0.489928
v 0.205090 0.384547 0.181193
v 0.211613 0.378403 0.194596
v 0.220504 0.382321 0.179817
v 0.215378 0.287708 0.278615
v 0.220710 0.297190 0.285174
v 0.219882 0.292472 0.280991
v 0.219683 0.297231 0.286715
v 0.223001 0.298480 0.289446
v 0.224066 0.301583 0.288991
v 0.226015 0.302879 0.291573
v 0.231959 0.311198 0.300079
v 0.225838 0.302698 0.291910
v 0.223571 0.402115 0.197595
vn 0.8706 0.4280 -0.2425
vn -0.1305 -0.3089 -0.9421
vn -0.9528 0.1859 0.2401
vn 0.2126 -0.2777 0.9369
vn -0.5285 -0.6241 0.5755
vn -0.7096 0.2443 -0.6608
vn 0.8620 -0.2312 -0.4511
vn 0.3762 0.7046 0.6016
vn -0.6481 0.4573 0.6089
vn -0.5356 -0.4510 -0.7139
vn 0.5955 -0.7002 0.3939
vn 0.6612 0.7055 -0.2552
vn -0.2283 -0.2616 -0.9378
vn -0.0159 -0.4230 0.9060
vn -0.6080 0.7932 0.0345
vn 0.9906 0.1093 -0.0821
vn -0.8910 -0.3335 -0.3081
vn 0.7272 0.1989 0.6570
vn -0.3170 0.9303 -0.1847
vn 0.4709 -0.8672 -0.1619
vn 0.9279 -0.1197 -0.3530
vn -0.6009 -0.5645 -0.5659
vn -0.2151 0.6970 -0.6840
vn 0.3757 -0.0523 0.9253
vn -0.7424 -0.3896 0.5451
vn -0.2944 0.6967 -0.6541
vn -0.0182 -0.6910 -0.7226
vn 0.5272 -0.5963 0.6054
vn -0.6826 -0.6042 0.4111
vn -0.5951 0.8018 0.0556
vn 0.4188 -0.2128 -0.8828
vn 0.8674 -0.0392 0.4960
vn 0.7531 -0.1762 -0.6338
vn 0.1961 -0.8953 0.4000
vn -0.9859 0.0497 0.1600
vn -0.0235 0.8118 0.5834
vn 0.0721 -0.2435 -0.9672
vn -0.1878 -0.9293 0.3179
vn -0.1956 0.3358 0.9214
vn 0.9247 0.3798 -0.0273
vn 0.5134 -0.8049 0.2977
vn -0.5121 0.6323 -0.5814
vn 0.8648 0.4900 0.1097
vn -0.8202 -0.5251 0.2268
vn 0.6986 -0.6738 0.2408
vn 0.0554 0.9973 -0.0484
vn -0.3312 0.0921 0.9390
vn -0.1676 -0.5018 -0.8486
vn -0.5311 -0.6291 -0.5676
vn 0.7105 0.1207 -0.6933
vn 0.4921 -0.2519 0.8333
vn -0.5526 0.7135 0.4307
vn -0.0593 0.9452 -0.3209
vn 0.2906 -0.2290 -0.9291
vn -0.7030 -0.6307 0.3287
vn 0.4745 0.1055 0.8739
vn 0.6232 0.7633 0.1702
vn 0.0734 0.2245 -0.9717
vn -0.9732 -0.1907 0.1282
vn 0.3255 -0.6910 0.6455
vn -0.6462 -0.2883 -0.7066
vn 0.4492 -0.8934 -0.0007
vn 0.2395 0.1646 0.9568
vn -0.1534 0.9833 -0.0984
vn -0.5763 -0.5440 -0.6099
vn 0.0245 -0.5307 0.8472
vn -0.2065 0.9763 0.0649
vn 0.9310 0.1620 -0.3270
vn -0.7958 -0.3244 0.5114
vn 0.6651 -0.7145 0.2172
vn 0.0340 0.9893 0.1422
vn -0.3114 0.0295 -0.9498
vn -0.9581 -0.2782 0.0676
vn 0.3568 -0.9135 -0.1955
vn 0.3766 0.3779 0.8458
vn 0.0743 0.7551 -0.6514
vn -0.6632 0.6480 -0.3745
vn 0.2826 -0.4527 -0.8457
vn -0.5656 -0.3437 0.7496
vn 0.8979 0.1391 0.4177
vn -0.7171 0.0717 -0.6933
vn 0.4628 -0.6543 -0.5980
vn -0.1074 0.0791 0.9911
vn 0.6917 0.7204 -0.0518
vn -0.8422 -0.0177 -0.5389
vn 0.6130 -0.3327 -0.7166
vn -0.2426 -0.6972 0.6746
vn 0.7486 -0.1775 -0.6388
vn -0.4716 -0.7280 -0.4976
vn 0.2600 0.0540 -0.9641
vn -0.9351 -0.3160 0.1603
vn 0.2826 -0.5146 0.8096
vn -0.0080 0.8483 -0.5294
vn 0.8957 -0.3021 -0.3264
vn 0.4589 0.6163 0.6400
vn -0.1156 -0.5946 0.7956
vn 0.4139 0.7822 0.4657
s 1
f 4//1 2//2 1//3
f 4//1 1//3 3//4
f 6//5 5//6 7//7
f 6//5 7//7 8//8
f 5//6 6//5 8//8
f 7//7 5//6 8//8
f 11//9 9//10 12//11
f 10//12 9//10 11//9
f 9//10 10//12 12//11
f 11//9 12//11 10//12
f 14//13 13//14 15//15
f 16//16 13//14 14//13
f 15//15 13//14 16//16
f 15//15 16//16 14//13
f 17//17 19//18 18//19
f 17//17 20//20 19//18
f 18//19 20//20 17//17
f 23//21 22//22 21//23
f 23//21 21//23 24//24
f 24//24 22//22 23//21
f 24//24 21//23 22//22
f 28//25 26//26 27//27
f 25//28 26//26 28//25
f 27//27 26//26 25//28
f 30//29 29//30 31//31
f 30//29 32//32 29//30
f 32//32 30//29 31//31
f 29//30 32//32 31//31
f 35//33 33//34 34//35
f 36//36 35//33 34//35
f 34//35 33//34 36//36
f 33//34 35//33 36//36
f 37//37 38//38 40//39
f 39//40 37//37 40//39
f 38//38 37//37 39//40
f 41//41 43//42 42//43
f 44//44 41//41 42//43
f 42//43 43//42 44//44
f 44//44 43//42 41//41
f 46//45 47//46 48//47
f 47//46 45//48 48//47
f 50//49 51//50 52//51
f 49//52 50//49 52//51
f 51//50 50//49 49//52
f 52//51 51//50 49//52
f 56//53 53//54 54//55
f 54//55 55//56 56//53
f 55//56 54//55 53//54
f 55//56 53//54 56//53
f 60//57 59//58 57//59
f 58//60 60//57 57//59
f 60//57 58//60 59//58
f 63//61 61//62 62//63
f 62//63 61//62 64//64
f 64//64 61//62 63//61
f 63//61 62//63 64//64
f 65//65 66//66 67//67
f 65//65 68//68 66//66
f 68//68 65//65 67//67
f 67//67 66//66 68//68
f 70//69 71//70 72//71
f 69//72 70//69 72//71
f 70//69 69//72 71//70
f 74//73 73//74 75//75
f 76//76 73//74 74//73
f 75//75 76//76 74//73
f 75//75 73//74 76//76
f 77//77 79//78 78//79
f 80//80 77//77 78//79
f 80//80 78//79 79//78
f 80//80 79//78 77//77
f 83//81 82//82 84//83
f 81//84 82//82 83//81
f 84//83 81//84 83//81
f 84//83 82//82 81//84
f 85//85 87//86 86//87
f 90//88 88//89 89//90
f 88//89 90//88 91//91
f 88//89 91//91 89//90
f 91//91 90//88 89//90
f 92//92 91//91 89//90
f 89//90 91//91 93//93
f 93//93 91//91 92//92
f 94//94 93//93 95//95
f 96//96 92//92 94//94
f 95//95 93//93 96//96
f 95//95 96//96 94//94
f 97//97 87//86 85//85
f 85//85 86//87 97//97
f 97//97 86//87 87//86
f 1//3 2//2 3//4
f 3//4 2//2 4//1
f 18//19 19//18 20//20
f 28//25 27//27 25//28
f 40//39 38//38 39//40
f 46//45 45//48 47//46
f 48//47 45//48 46//45
f 57//59 59//58 58//60
f 71//70 69//72 72//71
f 94//94 92//92 89//90
f 89//90 93//93 94//94
f 96//96 93//93 92//92
