# Blender v3.5.1 OBJ File: ''
# www.blender.org
o file1_polyreduce2
v -0.192988 0.034401 -0.453802
v -0.190891 0.020909 -0.442828
v -0.176473 0.027995 -0.460027
v -0.189996 0.015565 -0.463576
v -0.150464 0.348871 -0.324573
v -0.149945 0.337136 -0.320246
v -0.156258 0.337456 -0.330314
v -0.159909 0.343339 -0.324794
v -0.028608 0.316674 0.381832
v -0.046961 0.312335 0.384528
v -0.031463 0.310125 0.367810
v -0.045294 0.325762 0.374447
vn 0.5007 -0.8645 -0.0450
vn -0.9039 -0.2603 0.3395
vn 0.2019 0.3276 -0.9230
vn 0.2334 0.7201 0.6535
vn -0.5267 0.5826 -0.6190
vn -0.4738 -0.8804 -0.0203
vn 0.2152 0.5844 0.7824
vn 0.9483 -0.2850 -0.1396
vn -0.8500 -0.1121 -0.5146
vn 0.6943 0.3961 -0.6009
vn 0.5304 -0.8026 0.2730
vn -0.4321 0.4864 0.7594
s 1
f 1//1 3//2 2//3
f 2//3 3//2 4//4
f 4//4 1//1 2//3
f 3//2 1//1 4//4
f 6//5 5//6 7//7
f 8//8 5//6 6//5
f 8//8 6//5 7//7
f 5//6 8//8 7//7
f 9//9 10//10 12//11
f 11//12 9//9 12//11
f 10//10 9//9 11//12
f 11//12 12//11 10//10
