# Blender v3.5.1 OBJ File: ''
# www.blender.org
o file1_polyreduce2
v -0.015384 -0.160276 0.478195
v -0.056738 -0.160332 0.468711
v -0.015389 -0.142321 0.451738
v -0.041794 -0.118698 0.475293
v -0.456785 0.054890 -0.159563
v -0.450659 0.062510 -0.179176
v -0.449216 0.033968 -0.171367
v -0.462036 0.043631 -0.182190
v -0.190883 0.026724 -0.447498
v -0.179621 0.035324 -0.452407
v -0.179879 0.030030 -0.451093
v -0.183653 0.024439 -0.458682
v -0.152160 0.338837 -0.321085
v -0.154277 0.336220 -0.319225
v -0.149816 0.337288 -0.323676
v -0.155336 0.339249 -0.321833
v -0.469970 0.062752 0.078657
v -0.477133 0.028516 0.074491
v -0.491371 0.041560 0.087569
v -0.491336 0.058584 0.068364
v -0.046314 0.312617 0.375119
v -0.026339 0.317016 0.372634
v -0.035012 0.319537 0.363817
v -0.034028 0.301966 0.376794
v 0.054630 -0.484382 0.026337
v 0.055137 -0.499132 0.026645
v 0.047932 -0.492403 0.015198
v 0.040690 -0.492364 0.026486
v 0.273316 -0.403164 0.086675
v 0.275873 -0.402791 0.090616
v 0.272189 -0.399043 0.091917
v 0.274940 -0.398218 0.086715
v 0.117812 0.468319 -0.033728
v 0.105626 0.491231 -0.021631
v 0.097510 0.493349 -0.043827
v 0.129890 0.486116 -0.045839
v 0.229988 0.312533 0.300887
v 0.233029 0.309720 0.301310
v 0.233578 0.311398 0.298301
v 0.233332 0.314677 0.303210
vn -0.8496 -0.5270 -0.0180
vn 0.6257 0.1551 -0.7645
vn 0.6457 -0.5863 0.4893
vn -0.3081 0.9160 0.2570
vn 0.6434 0.3297 0.6909
vn 0.1702 -0.3635 -0.9159
vn -0.4107 0.9014 -0.1368
vn 0.8038 0.2415 -0.5436
vn -0.4270 -0.9036 0.0337
vn -0.8231 0.2659 -0.5018
vn 0.0298 0.5911 0.8060
vn 0.3684 0.6087 -0.7026
vn -0.5004 -0.7339 -0.4593
vn -0.7819 0.1950 0.5922
vn 0.8363 -0.4934 0.2391
vn 0.5994 0.3036 -0.7407
vn -0.6980 -0.7067 -0.1154
vn -0.3186 0.9265 0.2004
vn 0.5841 -0.5603 0.5873
vn -0.9046 -0.3889 -0.1742
vn 0.9615 -0.0402 -0.2719
vn 0.0383 -0.5676 0.8224
vn -0.1553 0.9208 -0.3577
vn -0.5664 0.7619 -0.3141
vn -0.5051 -0.8177 -0.2762
vn 0.1482 0.0346 0.9883
vn 0.9374 0.0284 -0.3472
vn -0.3006 -0.6846 -0.6640
vn 0.6184 -0.5854 0.5243
vn -0.5156 0.4443 0.7326
vn 0.2682 0.7431 -0.6131
vn -0.7721 0.4087 -0.4867
vn 0.1944 -0.9670 0.1646
vn -0.3022 0.3577 0.8836
vn 0.8567 0.1576 -0.4911
vn -0.9854 0.1656 -0.0393
vn 0.3923 -0.1206 -0.9119
vn 0.2101 -0.9323 0.2942
vn 0.2825 0.7240 0.6292
vn -0.3061 -0.8531 0.4226
s 1
f 2//1 3//2 1//3
f 3//2 2//1 4//4
f 4//4 1//3 3//2
f 2//1 1//3 4//4
f 8//5 5//6 7//7
f 9//8 10//9 11//10
f 12//11 10//9 9//8
f 14//12 13//13 15//14
f 16//15 13//13 14//12
f 15//14 13//13 16//15
f 16//15 14//12 15//14
f 19//16 17//17 18//18
f 17//17 20//19 18//18
f 17//17 19//16 20//19
f 20//19 19//16 18//18
f 22//20 21//21 23//22
f 22//20 23//22 24//23
f 24//23 23//22 21//21
f 26//24 25//25 27//26
f 28//27 25//25 26//24
f 25//25 28//27 27//26
f 28//27 26//24 27//26
f 29//28 30//29 31//30
f 30//29 29//28 32//31
f 30//29 32//31 31//30
f 29//28 31//30 32//31
f 35//32 33//33 34//34
f 36//35 33//33 35//32
f 36//35 35//32 34//34
f 34//34 33//33 36//35
f 37//36 39//37 38//38
f 40//39 39//37 37//36
f 37//36 38//38 40//39
f 40//39 38//38 39//37
f 5//6 6//40 7//7
f 7//7 6//40 8//5
f 8//5 6//40 5//6
f 11//10 10//9 12//11
f 12//11 9//8 11//10
f 21//21 22//20 24//23
