# Blender v3.5.1 OBJ File: ''
# www.blender.org
o file1_polyreduce2
v -0.418668 -0.234099 -0.109972
v -0.410361 -0.288832 -0.079256
v -0.388512 -0.279761 -0.120678
v -0.401815 -0.245044 -0.061274
v -0.370751 -0.277303 -0.080736
v -0.367941 -0.245971 -0.124008
v -0.395301 -0.211855 -0.089324
v -0.339627 -0.265566 -0.109626
v -0.356783 -0.266198 -0.056046
v -0.348338 -0.225026 -0.052377
v -0.351011 -0.208443 -0.113128
v -0.067409 -0.280353 -0.421881
v -0.097325 -0.244425 -0.408481
v -0.090181 -0.277380 -0.390431
v -0.056215 -0.243291 -0.421573
v -0.055056 -0.259067 -0.386541
v -0.489522 0.023015 0.037506
v -0.493937 -0.015352 -0.008738
v -0.494222 -0.030245 0.039877
v -0.508390 0.021338 0.001705
v -0.051152 -0.145665 0.407861
v -0.048896 -0.109628 0.425621
v -0.037946 -0.148967 0.466553
v -0.012689 -0.151317 0.434441
v -0.012091 -0.114613 0.437177
v -0.011359 -0.139305 0.389001
v -0.035251 -0.108081 0.349066
v -0.047208 -0.118660 0.387700
v -0.009891 -0.104249 0.396599
v -0.045169 -0.073077 0.471723
v -0.031794 -0.053548 0.501987
v -0.046444 -0.033582 0.467954
v -0.060437 -0.050774 0.499343
v -0.431169 0.042889 -0.160445
v -0.429392 0.051460 -0.170784
v -0.396188 0.035528 -0.159639
v -0.398727 0.043720 -0.143407
v -0.392202 0.050316 -0.153047
v -0.390867 0.243631 -0.184665
v -0.372677 0.252412 -0.179467
v -0.396337 0.257214 -0.169569
v -0.432727 0.219859 -0.018852
v -0.388330 0.204225 0.006465
v -0.380751 0.212092 -0.028451
v -0.373394 0.187109 -0.020355
v -0.383415 0.268943 -0.181590
v -0.364979 0.038006 -0.139778
v -0.174524 0.024048 -0.415128
v -0.153646 0.015938 -0.369680
v -0.148892 0.027711 -0.337691
v -0.139023 0.019013 -0.345673
v -0.142195 0.310570 -0.296158
v -0.136485 0.293345 -0.278587
v -0.132454 0.306277 -0.293621
v -0.128190 0.295794 -0.278223
v -0.125772 0.273729 -0.261086
v -0.115078 0.255922 -0.243824
v -0.121802 0.277590 -0.265774
v -0.116927 0.260492 -0.246116
v -0.118450 0.262318 -0.249244
v -0.443221 0.049212 0.078364
v -0.444597 0.044853 0.054808
v -0.421905 0.025767 0.067524
v -0.393058 0.040513 0.062153
v -0.386115 0.134188 0.271338
v -0.361874 0.124869 0.251659
v -0.370067 0.131875 0.260423
v -0.356041 0.125070 0.252839
v -0.186997 0.443103 0.131389
v -0.188257 0.432676 0.152575
v -0.212177 0.427057 0.150761
v -0.201429 0.425350 0.129349
v -0.058288 0.120915 0.407377
v -0.061113 0.129535 0.424103
v -0.059092 0.124124 0.415690
v -0.062087 0.127153 0.424599
v -0.060414 0.125134 0.419375
v -0.059547 0.128583 0.425975
v -0.062122 0.129206 0.432010
v -0.066790 0.139609 0.462720
v -0.066469 0.134686 0.454484
v -0.063357 0.128708 0.430132
v -0.062491 0.132477 0.443873
v -0.097734 0.325651 0.337326
v -0.104542 0.339651 0.323939
v -0.112450 0.324453 0.326483
v -0.092931 0.304128 0.306543
v 0.105140 -0.344644 -0.289522
v 0.112229 -0.368919 -0.313639
v 0.109749 -0.345623 -0.300955
v 0.117123 -0.362656 -0.302095
v 0.247390 -0.388945 -0.070410
v 0.262841 -0.392389 -0.076600
v 0.243550 -0.410570 -0.046899
v 0.242616 -0.421548 -0.081841
v 0.342113 -0.271033 -0.183268
v 0.333733 -0.269901 -0.212018
v 0.312893 -0.289312 -0.191096
v 0.327288 -0.295535 -0.195627
v 0.314546 -0.285846 -0.220368
v 0.317209 -0.285474 -0.220676
v 0.042668 -0.437011 0.020963
v 0.056231 -0.464659 0.019751
v 0.038154 -0.464410 0.032735
v 0.036256 -0.466680 0.012742
v 0.037670 -0.451929 0.177434
v 0.032545 -0.456313 0.176337
v 0.036389 -0.454432 0.172963
v 0.031991 -0.450301 0.177186
v 0.228215 -0.322437 0.063582
v 0.228232 -0.353835 0.081068
v 0.229307 -0.325896 0.089167
v 0.255623 -0.366169 0.079341
v 0.256264 -0.085643 0.382108
v 0.285631 -0.084315 0.411464
v 0.252304 -0.080939 0.423210
v 0.257406 -0.054840 0.395652
v 0.286560 -0.102656 0.382236
v 0.269133 -0.069317 0.387845
v 0.291505 -0.068225 0.405588
v 0.308670 -0.073767 0.376431
v 0.104230 0.437917 -0.032251
v 0.097923 0.470297 -0.041122
v 0.117197 0.459392 -0.046122
v 0.111311 0.476499 -0.023898
v 0.228506 0.368845 -0.181231
v 0.231313 0.374453 -0.184658
v 0.238388 0.385027 -0.189259
v 0.234025 0.378723 -0.185971
v 0.324010 0.132028 -0.356836
v 0.308630 0.143148 -0.355881
v 0.307930 0.120751 -0.357816
v 0.307559 0.132344 -0.371836
v 0.313808 0.269466 -0.220212
v 0.327841 0.279312 -0.233909
v 0.331381 0.276366 -0.219012
v 0.325402 0.287330 -0.226007
v 0.439261 0.018542 -0.189815
v 0.438160 0.011980 -0.191788
v 0.434803 0.017247 -0.193475
v 0.448888 0.014500 -0.197344
v 0.189690 0.254147 0.244696
v 0.189572 0.253760 0.245957
v 0.200357 0.267808 0.258308
v 0.198749 0.267228 0.258200
v 0.190073 0.347776 0.168193
v 0.205962 0.352565 0.174559
v 0.212308 0.373103 0.176381
v 0.196273 0.369338 0.181490
v 0.219534 0.387550 0.195673
v 0.205616 0.389866 0.189197
v 0.220215 0.294886 0.283283
v 0.219408 0.294846 0.285799
v 0.226091 0.302825 0.291444
v 0.228286 0.306430 0.295091
v 0.389280 0.194035 0.218267
v 0.392173 0.203229 0.215122
v 0.401966 0.198727 0.213192
v 0.401459 0.195136 0.222949
vn -0.5302 -0.7766 0.3403
vn -0.6074 0.6308 -0.4828
vn 0.2792 -0.3594 -0.8904
vn -0.4847 0.3008 0.8213
vn 0.1930 -0.9727 0.1288
vn 0.1045 0.1590 -0.9817
vn -0.7376 0.6683 -0.0969
vn 0.6779 -0.4876 -0.5502
vn 0.2963 -0.5129 0.8056
vn 0.3930 0.4085 0.8239
vn 0.3212 0.6524 -0.6865
vn -0.8026 0.5869 -0.1067
vn 0.3741 -0.7854 -0.4932
vn -0.4572 -0.6835 0.5690
vn 0.6757 0.5206 -0.5219
vn 0.7527 -0.0935 0.6517
vn 0.0000 1.0000 0.0000
vn -0.3533 0.9187 0.1767
vn -0.4102 0.8887 0.2051
vn -0.7183 -0.6422 -0.2677
vn -0.2193 -0.3755 0.9005
vn -0.6691 0.6935 0.2672
vn 0.6695 -0.7198 0.1834
vn 0.6398 0.5704 0.5151
vn 0.6029 -0.6220 -0.4996
vn 0.6451 0.7531 -0.1294
vn -0.2217 0.2742 -0.9358
vn -0.8578 0.2033 -0.4720
vn 0.0278 -0.8361 -0.5478
vn -0.7769 0.0905 0.6231
vn -0.0050 0.7518 -0.6594
vn 0.7119 -0.0215 0.7020
vn -0.9292 -0.2970 0.2200
vn -0.5495 0.4936 -0.6741
vn 0.0742 -0.6718 -0.7370
vn -0.5535 0.1016 0.8267
vn -0.0913 0.9200 -0.3812
vn 0.5006 0.5305 -0.6841
vn -0.9415 0.3224 -0.0983
vn 0.1443 -0.0048 0.9895
vn 0.6180 -0.7596 -0.2027
vn 0.1359 0.9596 -0.2462
vn -0.3631 -0.8129 -0.4553
vn -0.7132 0.1111 0.6921
vn 0.9176 -0.1636 0.3622
vn 0.9675 -0.2525 0.0106
vn -0.0090 -0.9927 -0.1200
vn -0.3955 0.0602 -0.9165
vn 0.8224 -0.3182 0.4716
vn -0.0966 0.3774 0.9210
vn -0.5886 0.5788 -0.5645
vn -0.8084 -0.4826 0.3370
vn 0.9290 0.2709 0.2522
vn 0.5437 -0.6360 0.5476
vn 0.6694 0.3283 -0.6665
vn 0.9179 -0.3884 0.0810
vn -0.1958 -0.5545 -0.8088
vn -0.3400 0.7016 -0.6262
vn -0.7826 -0.5975 -0.1750
vn 0.0843 -0.9852 0.1496
vn -0.6002 0.4174 0.6823
vn -0.7169 0.1852 -0.6721
vn 0.9905 0.0745 -0.1158
vn 0.9421 -0.2136 -0.2585
vn -0.0836 -0.4720 -0.8776
vn 0.1642 0.9857 -0.0388
vn -0.7999 0.2189 0.5588
vn 0.8224 0.2254 -0.5223
vn -0.5350 -0.6593 0.5283
vn -0.6218 -0.0004 -0.7832
vn 0.2725 0.5185 0.8105
vn 0.9369 -0.2773 0.2131
vn 0.1347 -0.3806 -0.9149
vn 0.1644 -0.9171 0.3632
vn -0.3187 -0.6720 0.6685
vn 0.7763 0.6216 -0.1049
vn -0.9379 -0.0866 -0.3359
vn 0.5824 -0.7853 0.2098
vn -0.1287 0.3953 0.9095
vn -0.5958 -0.7209 0.3540
vn -0.8942 -0.4464 -0.0346
vn 0.9886 -0.1205 0.0901
vn 0.4135 -0.0126 0.9104
vn -0.0719 0.9854 -0.1545
vn -0.9779 -0.1651 0.1282
vn 0.3372 -0.7002 -0.6293
vn 0.0428 0.9105 -0.4112
vn -0.0234 -0.7094 -0.7044
vn -0.3784 0.5278 0.7605
vn 0.7762 -0.5351 0.3333
vn 0.8117 0.4414 -0.3825
vn -0.2773 -0.7763 -0.5661
vn -0.3986 0.9163 -0.0386
vn -0.2120 -0.2977 0.9308
vn -0.9278 -0.2659 0.2619
vn 0.6101 0.4760 0.6334
vn 0.1036 0.4468 -0.8886
vn 0.1629 -0.9795 -0.1186
vn -0.1895 0.2350 0.9533
vn 0.8795 0.1488 0.4521
vn -0.5344 -0.5007 -0.6809
vn 0.9252 -0.3603 -0.1190
vn -0.3730 -0.3586 0.8557
vn -0.0327 0.9989 -0.0332
vn 0.8264 0.3346 0.4528
vn -0.5501 -0.8227 0.1435
vn 0.4337 -0.2724 -0.8589
vn -0.6469 0.7197 0.2521
vn -0.1935 0.6845 0.7028
vn -0.7001 -0.6980 0.1506
vn 0.6931 -0.7208 0.0130
vn -0.2131 0.6876 -0.6941
vn -0.2684 -0.4477 -0.8530
vn 0.9152 -0.2856 0.2842
vn -0.5052 -0.1964 0.8404
vn -0.1882 0.9449 -0.2677
vn -0.9098 0.4037 -0.0960
vn -0.1068 -0.9736 -0.2019
vn 0.1805 0.4223 0.8883
vn 0.8243 0.2269 -0.5187
vn 0.7033 -0.0941 -0.7046
vn -0.1649 -0.9666 0.1962
vn -0.7566 0.5104 -0.4087
vn 0.2233 0.7057 0.6724
vn 0.4864 -0.6413 -0.5934
vn 0.4417 0.7927 -0.4202
vn 0.6297 0.1326 0.7654
vn -0.5083 -0.7755 0.3746
vn 0.3461 0.8982 -0.2708
vn 0.3058 -0.8653 -0.3973
vn -0.9654 0.0136 -0.2606
vn 0.3232 -0.0413 0.9454
vn -0.0502 0.9987 -0.0076
vn 0.7293 -0.2313 0.6439
vn 0.2778 -0.0348 -0.9600
vn -0.2870 -0.9233 0.2553
vn 0.0559 0.6737 0.7369
vn -0.9102 0.3188 -0.2644
vn 0.8877 -0.1013 -0.4492
vn -0.3074 -0.3435 -0.8874
vn -0.5272 -0.8454 0.0855
vn -0.3232 0.5366 0.7795
vn -0.1899 0.5804 0.7919
vn -0.8776 0.2506 0.4087
vn -0.6393 -0.6562 -0.4010
vn 0.6504 -0.7577 0.0542
vn 0.7051 -0.1553 -0.6919
vn 0.7100 0.3576 0.6067
vn -0.4626 0.8714 0.1636
vn -0.6620 -0.7109 -0.2373
vn -0.6852 -0.7109 -0.1586
vn 0.4492 0.6502 0.6128
vn 0.8855 -0.0855 -0.4568
vn 0.7551 0.1039 -0.6473
vn -0.8346 -0.5392 0.1124
vn -0.5089 0.8164 -0.2730
vn 0.5976 -0.3144 0.7376
vn -0.7574 -0.5828 0.2944
s 1
f 2//1 1//2 3//3
f 1//2 2//1 4//4
f 2//1 5//5 4//4
f 5//5 3//3 1//2
f 6//6 1//2 4//4
f 6//6 4//4 7//7
f 5//5 6//6 8//8
f 8//8 6//6 7//7
f 5//5 9//9 4//4
f 4//4 9//9 7//7
f 7//7 9//9 10//10
f 11//11 8//8 7//7
f 11//11 7//7 10//10
f 9//9 8//8 10//10
f 10//10 8//8 11//11
f 13//12 12//13 14//14
f 15//15 12//13 13//12
f 14//14 15//15 16//16
f 13//12 14//14 16//16
f 16//16 15//15 13//12
f 19//17 17//18 18//19
f 17//18 20//19 18//19
f 18//19 17//18 19//17
f 21//20 23//21 22//22
f 23//21 21//20 24//23
f 25//24 22//22 23//21
f 21//20 26//25 24//23
f 24//23 26//25 25//24
f 29//26 27//27 28//28
f 28//28 27//27 26//25
f 29//26 26//25 27//27
f 30//29 33//30 32//31
f 31//32 32//31 33//30
f 30//29 31//32 33//30
f 29//26 28//28 22//22
f 22//22 25//24 29//26
f 25//24 26//25 29//26
f 34//33 35//34 36//35
f 36//35 37//36 38//37
f 36//35 37//36 34//33
f 44//38 42//39 43//40
f 42//39 44//38 45//41
f 42//39 45//41 43//40
f 46//42 39//43 41//44
f 47//45 38//37 37//36
f 38//37 47//45 36//35
f 41//44 39//43 40//46
f 45//41 44//38 43//40
f 41//44 40//46 46//42
f 49//47 48//48 51//49
f 48//48 50//50 51//49
f 51//49 50//50 49//47
f 52//51 53//52 55//53
f 53//52 56//54 55//53
f 53//52 52//51 54//55
f 55//53 53//52 54//55
f 55//53 54//55 52//51
f 58//56 55//53 56//54
f 53//52 58//56 56//54
f 58//56 53//52 55//53
f 56//54 59//57 57//58
f 60//59 59//57 56//54
f 57//58 59//57 60//59
f 56//54 57//58 58//56
f 60//59 58//56 57//58
f 63//60 61//61 62//62
f 63//60 64//63 61//61
f 62//62 64//63 63//60
f 68//64 66//65 67//66
f 67//66 66//65 65//67
f 66//65 68//64 65//67
f 71//68 69//69 70//70
f 70//70 69//69 72//71
f 71//68 70//70 72//71
f 72//71 69//69 71//68
f 75//72 73//73 74//74
f 77//75 74//74 76//76
f 73//73 75//72 77//75
f 78//77 74//74 77//75
f 78//77 77//75 76//76
f 77//75 74//74 73//73
f 79//78 76//76 74//74
f 80//79 79//78 81//80
f 78//77 76//76 79//78
f 82//81 78//77 79//78
f 82//81 74//74 78//77
f 83//82 79//78 80//79
f 83//82 74//74 82//81
f 81//80 79//78 83//82
f 79//78 74//74 83//82
f 81//80 83//82 80//79
f 84//83 85//84 86//85
f 85//84 87//86 86//85
f 90//87 89//88 88//89
f 89//88 91//90 88//89
f 88//89 91//90 90//87
f 89//88 90//87 91//90
f 93//91 95//92 92//93
f 94//94 93//91 92//93
f 95//92 93//91 94//94
f 92//93 95//92 94//94
f 98//95 96//96 97//97
f 99//98 97//97 96//96
f 101//99 100//100 99//98
f 98//95 97//97 99//98
f 100//100 97//97 99//98
f 105//101 103//102 104//103
f 104//103 103//102 102//104
f 103//102 105//101 102//104
f 102//104 105//101 104//103
f 106//105 107//106 108//107
f 107//106 106//105 109//108
f 108//107 107//106 109//108
f 112//109 111//110 113//111
f 112//109 113//111 110//112
f 114//113 115//114 116//115
f 115//114 114//113 117//116
f 115//114 117//116 116//115
f 119//117 118//118 120//119
f 121//120 118//118 119//117
f 120//119 121//120 119//117
f 124//121 122//122 123//123
f 125//124 122//122 124//121
f 124//121 123//123 125//124
f 129//125 126//126 127//127
f 126//126 128//128 127//127
f 128//128 126//126 129//125
f 132//129 131//130 130//131
f 130//131 131//130 133//132
f 133//132 132//129 130//131
f 133//132 131//130 132//129
f 137//133 136//134 135//135
f 139//136 138//137 140//138
f 140//138 138//137 141//139
f 141//139 138//137 139//136
f 139//136 140//138 141//139
f 142//140 143//141 145//142
f 144//143 143//141 142//140
f 145//142 143//141 144//143
f 144//143 142//140 145//142
f 149//144 146//145 147//146
f 148//147 146//145 149//144
f 147//146 146//145 148//147
f 149//144 147//146 148//147
f 149//144 148//147 150//148
f 149//144 150//148 151//149
f 148//147 149//144 151//149
f 145//142 144//143 152//150
f 145//142 152//150 153//151
f 144//143 145//142 153//151
f 155//152 153//151 154//153
f 155//152 154//153 152//150
f 150//148 148//147 151//149
f 158//154 156//155 157//156
f 158//154 159//157 156//155
f 157//156 156//155 159//157
f 159//157 158//154 157//156
f 6//6 5//5 1//2
f 14//14 12//13 15//15
f 23//21 24//23 25//24
f 31//32 30//29 32//31
f 21//20 28//28 26//25
f 28//28 21//20 22//22
f 35//34 34//33 37//36
f 46//42 40//46 39//43
f 47//45 37//36 36//35
f 49//47 50//50 48//48
f 61//61 64//63 62//62
f 65//67 68//64 67//66
f 87//86 85//84 84//83
f 84//83 86//85 87//86
f 98//95 99//98 96//96
f 97//97 101//99 99//98
f 108//107 109//108 106//105
f 110//112 111//110 112//109
f 113//111 111//110 110//112
f 114//113 116//115 117//116
f 120//119 118//118 121//120
f 123//123 122//122 125//124
f 129//125 127//127 128//128
f 134//158 135//135 136//134
f 134//158 136//134 137//133
f 137//133 135//135 134//158
f 144//143 153//151 152//150
f 154//153 153//151 152//150
f 2//1 3//3 5//5
f 5//5 8//8 9//9
f 18//19 20//19 17//18
f 36//35 35//34 37//36
f 60//59 56//54 58//56
f 77//75 75//72 74//74
f 83//82 82//81 79//78
f 101//99 97//97 100//100
f 155//152 152//150 153//151
