# Blender v3.5.1 OBJ File: ''
# www.blender.org
o file1_polyreduce2
v -0.432346 -0.262622 -0.086941
v -0.398101 -0.258780 -0.123538
v -0.384950 -0.290513 -0.099898
v -0.395807 -0.262605 -0.069729
v -0.450306 0.040791 -0.162342
v -0.443837 0.056134 -0.177247
v -0.454016 0.053713 -0.162964
v -0.446948 0.038375 -0.172962
v -0.443004 0.215613 -0.005221
v -0.431468 0.215693 -0.026983
v -0.432462 0.236369 -0.025694
v -0.428323 0.237671 -0.004709
v -0.184204 0.031244 -0.447035
v -0.184463 0.016348 -0.447505
v -0.181678 0.018083 -0.431355
v -0.177584 0.031317 -0.429386
v -0.151439 0.337533 -0.320693
v -0.150595 0.335404 -0.317989
v -0.152221 0.340640 -0.321974
v -0.149530 0.337579 -0.321569
v -0.142127 0.317487 -0.301783
v -0.146056 0.328725 -0.312484
v -0.148313 0.329534 -0.310817
v -0.145338 0.324043 -0.308920
v -0.146091 0.324965 -0.309275
v -0.149744 0.329644 -0.314588
v -0.148587 0.333230 -0.317404
v -0.152949 0.337711 -0.321970
v -0.151050 0.336517 -0.320238
v -0.470665 0.057755 0.069278
v -0.473979 0.035014 0.065781
v -0.468338 0.035760 0.088906
v -0.462978 0.054004 0.090248
v -0.387887 0.136703 0.271656
v -0.390574 0.133586 0.274755
v -0.386442 0.134987 0.274510
v -0.390506 0.138118 0.274511
v -0.067598 0.139293 0.462245
v -0.067824 0.141920 0.469195
v -0.065813 0.137406 0.463403
v -0.067263 0.138632 0.469523
v -0.102223 0.336199 0.328396
v -0.092679 0.342090 0.349170
v -0.118168 0.351133 0.328182
v -0.125712 0.334627 0.348035
v -0.034526 0.306055 0.355570
v -0.039526 0.291139 0.363202
v -0.032668 0.304414 0.373606
v -0.038318 0.313912 0.364284
v 0.258047 -0.421292 -0.034580
v 0.283871 -0.395327 -0.057841
v 0.238356 -0.418296 -0.078485
v 0.278274 -0.419220 -0.085269
v 0.053149 -0.481689 0.027942
v 0.055107 -0.480793 0.017576
v 0.040603 -0.481453 0.017504
v 0.039383 -0.481267 0.031342
v 0.275352 -0.402115 0.091022
v 0.263293 -0.390165 0.081926
v 0.271408 -0.387759 0.085061
v 0.261355 -0.388994 0.090554
v 0.108941 0.450250 -0.037646
v 0.100182 0.475059 -0.022875
v 0.101901 0.490241 -0.044429
v 0.127622 0.476966 -0.043537
v 0.016787 0.055635 0.476778
v 0.025862 0.061973 0.475958
v 0.026561 0.052653 0.488315
v 0.018854 0.061441 0.494431
v 0.228921 0.306728 0.296077
v 0.229105 0.311923 0.298794
v 0.233964 0.311039 0.300120
v 0.232846 0.313345 0.301835
v 0.218822 0.396814 0.184022
v 0.228478 0.396566 0.192188
v 0.213554 0.400465 0.195462
v 0.219536 0.389202 0.197985
vn -0.9662 0.1525 0.2078
vn 0.5724 -0.8082 -0.1387
vn 0.3240 0.2653 0.9081
vn 0.1342 0.3796 -0.9154
vn 0.5262 -0.6497 -0.5487
vn -0.3907 -0.6635 0.6380
vn 0.1215 0.6418 -0.7572
vn -0.1890 0.8417 0.5059
vn 0.0139 0.7096 -0.7044
vn 0.1951 -0.6956 -0.6914
vn -0.5461 -0.5885 0.5962
vn 0.3563 0.6403 0.6806
vn -0.0237 -0.6974 0.7163
vn -0.1959 0.6982 -0.6886
vn -0.1797 -0.7001 -0.6910
vn 0.3644 0.6088 0.7047
vn 0.3585 0.3024 -0.8832
vn -0.1122 0.8727 -0.4751
vn 0.3743 -0.6747 0.6361
vn 0.5095 -0.4401 -0.7395
vn -0.3518 0.6909 0.6316
vn 0.9650 -0.1726 -0.1973
vn -0.2268 0.9674 -0.1131
vn 0.4779 0.1297 -0.8688
vn 0.6466 0.2254 -0.7288
vn -0.8983 -0.3796 -0.2211
vn -0.8491 -0.4288 -0.3085
vn 0.9524 -0.2951 -0.0761
vn 0.2690 0.5712 0.7755
vn 0.0077 -0.7276 0.6859
vn -0.1153 0.7996 -0.5894
vn -0.2763 -0.6285 -0.7271
vn 0.4013 0.5671 0.7193
vn 0.3138 0.2978 -0.9016
vn -0.5833 -0.7664 0.2690
vn -0.5531 0.7910 0.2614
vn 0.8986 -0.3029 0.3173
vn -0.2877 0.1862 -0.9394
vn 0.0044 -0.4716 0.8818
vn -0.1798 0.7758 0.6048
vn 0.5347 -0.6663 -0.5197
vn -0.4832 0.4556 0.7476
vn -0.8120 -0.0862 -0.5772
vn 0.4720 -0.6656 0.5781
vn 0.7808 0.3520 -0.5161
vn -0.2730 -0.9594 -0.0714
vn 0.2545 0.1530 -0.9549
vn 0.3852 0.0118 0.9228
vn -0.2915 0.9556 0.0424
vn -0.6555 -0.7196 -0.2292
vn 0.2104 0.2845 -0.9353
vn 0.8839 0.1186 0.4524
vn -0.5403 0.2969 0.7874
vn -0.6822 0.0091 0.7311
vn 0.7356 -0.0709 0.6737
vn 0.7650 0.0625 -0.6410
vn -0.6999 -0.0219 -0.7139
vn 0.6881 0.6793 -0.2552
vn -0.5631 0.0875 -0.8218
vn -0.7478 0.3113 0.5864
vn 0.5601 -0.7710 0.3030
vn -0.4177 0.8062 -0.4189
vn -0.0478 -0.9969 -0.0618
vn -0.4899 0.1040 0.8656
vn 0.9394 0.1777 -0.2930
vn 0.5861 -0.6853 0.4323
vn -0.6771 -0.3157 -0.6647
vn 0.4794 0.4994 -0.7217
vn -0.3170 0.3651 0.8754
vn 0.2931 0.6671 0.6849
vn -0.3780 -0.7439 -0.5512
vn 0.9761 -0.2086 0.0610
vn -0.8327 0.5340 -0.1463
vn -0.7278 0.5801 0.3658
vn -0.1712 0.0741 -0.9825
vn -0.0786 -0.7906 0.6073
vn 0.9902 0.1396 0.0054
s 1
f 1//1 3//2 4//3
f 4//3 2//4 1//1
f 4//3 3//2 2//4
f 7//5 6//6 5//7
f 8//8 5//7 6//6
f 8//8 6//6 7//5
f 8//8 7//5 5//7
f 11//9 10//10 9//11
f 12//12 11//9 9//11
f 12//12 9//11 10//10
f 12//12 10//10 11//9
f 15//13 13//14 14//15
f 13//14 16//16 14//15
f 16//16 13//14 15//13
f 15//13 14//15 16//16
f 22//17 25//18 21//19
f 25//18 24//20 21//19
f 23//21 25//18 22//17
f 23//21 24//20 25//18
f 21//19 24//20 23//21
f 17//22 19//23 18//24
f 27//25 26//26 18//24
f 22//17 26//26 23//21
f 21//19 26//26 27//25
f 18//24 22//17 21//19
f 21//19 27//25 18//24
f 21//19 23//21 26//26
f 28//27 19//23 20//28
f 20//28 17//22 28//27
f 17//22 18//24 29//29
f 29//29 28//27 17//22
f 29//29 27//25 19//23
f 32//30 30//31 31//32
f 32//30 33//33 30//31
f 30//31 33//33 31//32
f 34//34 35//35 37//36
f 36//37 34//34 37//36
f 37//36 35//35 36//37
f 38//38 41//39 39//40
f 38//38 40//41 41//39
f 39//40 40//41 38//38
f 41//39 40//41 39//40
f 42//42 43//43 44//44
f 44//44 43//43 45//45
f 42//42 44//44 45//45
f 45//45 43//43 42//42
f 47//46 46//47 48//48
f 48//48 46//47 49//49
f 49//49 46//47 47//46
f 51//50 50//51 52//52
f 50//51 51//50 53//53
f 52//52 50//51 53//53
f 57//54 54//55 55//56
f 57//54 55//56 56//57
f 54//55 57//54 56//57
f 55//56 54//55 56//57
f 60//58 59//59 61//60
f 61//60 59//59 58//61
f 61//60 58//61 60//58
f 60//58 58//61 59//59
f 64//62 62//63 63//64
f 65//65 62//63 64//62
f 63//64 62//63 65//65
f 63//64 65//65 64//62
f 68//66 66//67 67//68
f 67//68 66//67 69//69
f 69//69 66//67 68//66
f 69//69 68//66 67//68
f 73//70 70//71 72//72
f 73//70 72//72 71//73
f 76//74 74//75 77//76
f 74//75 75//77 77//76
f 76//74 77//76 75//77
f 1//1 2//4 3//2
f 19//23 17//22 20//28
f 26//26 22//17 18//24
f 18//24 19//23 27//25
f 29//29 19//23 28//27
f 29//29 18//24 27//25
f 32//30 31//32 33//33
f 35//35 34//34 36//37
f 48//48 49//49 47//46
f 51//50 52//52 53//53
f 72//72 70//71 71//73
f 71//73 70//71 73//70
f 75//77 74//75 76//74
