# Blender v3.5.1 OBJ File: ''
# www.blender.org
o file1_polyreduce2
v 0.000817 -0.003117 0.009744
v 0.002063 0.009373 0.011525
v 0.000407 0.022787 0.017164
v -0.004326 0.023296 0.009719
v -0.006055 0.044709 0.028751
v -0.004212 0.050307 0.022257
v 0.007191 0.019010 -0.005631
v 0.011906 0.036248 -0.007456
v 0.015782 0.046227 -0.010224
v 0.017722 0.048551 -0.011388
v 0.023209 0.063322 -0.013358
v 0.021454 0.059212 -0.014754
v 0.024973 0.072682 -0.016012
v 0.018938 0.007331 0.045891
v 0.003164 0.018723 0.044171
v 0.004568 0.003843 0.065139
v 0.014169 0.027068 0.080902
vn -0.2592 0.3426 0.9030
vn -0.2095 -0.6025 -0.7701
vn 0.4976 -0.8434 0.2030
vn 0.0330 0.9952 -0.0920
vn 0.5701 -0.2565 -0.7805
vn 0.2961 0.9435 -0.1485
vn -0.6609 0.3098 0.6836
vn 0.7977 -0.5510 -0.2449
vn 0.7058 0.0334 0.7076
vn 0.1692 -0.2611 -0.9504
vn 0.2516 0.9494 -0.1878
vn 0.7990 -0.4292 -0.4213
vn -0.2267 -0.6855 -0.6919
vn -0.1502 0.5410 -0.8275
vn -0.6253 0.6185 -0.4758
vn -0.4433 -0.7784 0.4445
vn 0.1753 0.5303 0.8295
s 1
f 5//1 4//2 3//3
f 5//1 3//3 6//4
f 4//2 5//1 6//4
f 8//5 7//6 9//7
f 10//8 7//6 8//5
f 9//7 7//6 10//8
f 11//9 10//8 12//10
f 13//11 9//7 11//9
f 12//10 9//7 13//11
f 11//9 12//10 13//11
f 14//12 1//13 2//14
f 2//14 1//13 15//15
f 1//13 14//12 15//15
f 15//15 16//16 17//17
f 14//12 15//15 17//17
f 16//16 14//12 17//17
f 6//4 3//3 4//2
f 10//8 8//5 12//10
f 8//5 9//7 12//10
f 14//12 2//14 15//15
f 15//15 14//12 16//16
f 11//9 9//7 10//8
